<svg xmlns="http://www.w3.org/2000/svg" viewBox="0 0 64 64" aria-hidden="true">
  <defs>
    <radialGradient id="sb" cx="38%" cy="32%" r="72%">
      <stop offset="0%" stop-color="#ffa8b8"/>
      <stop offset="45%" stop-color="#ff6b8a"/>
      <stop offset="100%" stop-color="#c9184a"/>
    </radialGradient>
  </defs>
  <!-- 圆润花萼：三团圆叶 -->
  <ellipse cx="24" cy="17" rx="9" ry="6" fill="#2f9e44" transform="rotate(-32 24 17)"/>
  <ellipse cx="40" cy="17" rx="9" ry="6" fill="#37b24d" transform="rotate(32 40 17)"/>
  <ellipse cx="32" cy="13" rx="7" ry="5" fill="#40c057"/>
  <!-- 果身：平滑贝塞尔，整体偏圆鼓 -->
  <path
    fill="url(#sb)"
    d="M32 20
       C45 20 52 30 52 40
       C52 50 45 56 32 56
       C19 56 12 50 12 40
       C12 30 19 20 32 20
       Z"
  />
  <!-- 籽：略椭、边缘柔和 -->
  <ellipse cx="26" cy="32" rx="2" ry="1.4" fill="#fff" opacity="0.88"/>
  <ellipse cx="36" cy="34" rx="1.8" ry="1.3" fill="#fff" opacity="0.88"/>
  <ellipse cx="30" cy="42" rx="1.9" ry="1.35" fill="#fff" opacity="0.88"/>
  <ellipse cx="38" cy="44" rx="1.7" ry="1.25" fill="#fff" opacity="0.88"/>
  <ellipse cx="24" cy="44" rx="1.7" ry="1.25" fill="#fff" opacity="0.85"/>
  <ellipse cx="32" cy="48" rx="1.8" ry="1.3" fill="#fff" opacity="0.82"/>
</svg>
